<mxfile host="app.diagrams.net" modified="2022-03-08T09:50:29.522Z" agent="5.0 (Macintosh; Intel Mac OS X 10_15_7) AppleWebKit/537.36 (KHTML, like Gecko) Chrome/97.0.4692.99 Safari/537.36" etag="9-mMD7Y8NRL5F8tjq-5e" version="15.0.3" type="github">
  <diagram id="C5RBs43oDa-KdzZeNtuy" name="Page-1">
    <mxGraphModel dx="2066" dy="1097" grid="1" gridSize="10" guides="1" tooltips="1" connect="1" arrows="1" fold="1" page="1" pageScale="1" pageWidth="1169" pageHeight="1654" background="none" math="0" shadow="0">
      <root>
        <mxCell id="WIyWlLk6GJQsqaUBKTNV-0" />
        <mxCell id="WIyWlLk6GJQsqaUBKTNV-1" parent="WIyWlLk6GJQsqaUBKTNV-0" />
        <mxCell id="WIyWlLk6GJQsqaUBKTNV-2" value="" style="rounded=0;html=1;jettySize=auto;orthogonalLoop=1;fontSize=11;endArrow=block;endFill=0;endSize=8;strokeWidth=1;shadow=0;labelBackgroundColor=none;edgeStyle=orthogonalEdgeStyle;verticalAlign=middle;align=center;" parent="WIyWlLk6GJQsqaUBKTNV-1" source="WIyWlLk6GJQsqaUBKTNV-3" target="WIyWlLk6GJQsqaUBKTNV-6" edge="1">
          <mxGeometry relative="1" as="geometry" />
        </mxCell>
        <mxCell id="WIyWlLk6GJQsqaUBKTNV-4" value="Yes" style="rounded=0;html=1;jettySize=auto;orthogonalLoop=1;fontSize=11;endArrow=block;endFill=0;endSize=8;strokeWidth=1;shadow=0;labelBackgroundColor=none;edgeStyle=orthogonalEdgeStyle;verticalAlign=middle;align=center;" parent="WIyWlLk6GJQsqaUBKTNV-1" source="WIyWlLk6GJQsqaUBKTNV-6" edge="1">
          <mxGeometry y="20" relative="1" as="geometry">
            <mxPoint as="offset" />
            <mxPoint x="434" y="430" as="targetPoint" />
          </mxGeometry>
        </mxCell>
        <mxCell id="WIyWlLk6GJQsqaUBKTNV-6" value="评估价值" style="rhombus;whiteSpace=wrap;html=1;shadow=0;fontFamily=Helvetica;fontSize=12;align=center;strokeWidth=1;spacing=6;spacingTop=-4;verticalAlign=middle;" parent="WIyWlLk6GJQsqaUBKTNV-1" vertex="1">
          <mxGeometry x="384" y="285" width="100" height="80" as="geometry" />
        </mxCell>
        <mxCell id="b5Mt_fPdI5iNJ6w0Xpzc-0" value="区域红队-安服" style="swimlane;horizontal=0;fillColor=#dae8fc;strokeColor=#6c8ebf;verticalAlign=middle;align=center;" parent="WIyWlLk6GJQsqaUBKTNV-1" vertex="1">
          <mxGeometry x="164" y="170" width="600" height="220" as="geometry" />
        </mxCell>
        <mxCell id="WIyWlLk6GJQsqaUBKTNV-3" value="确定安全开发需求" style="rounded=1;whiteSpace=wrap;html=1;fontSize=12;glass=0;strokeWidth=1;shadow=0;verticalAlign=middle;align=center;" parent="b5Mt_fPdI5iNJ6w0Xpzc-0" vertex="1">
          <mxGeometry x="210" y="20" width="120" height="40" as="geometry" />
        </mxCell>
        <mxCell id="b5Mt_fPdI5iNJ6w0Xpzc-10" value="iput:开发需求文档、预期、JIRA工单" style="shape=document;whiteSpace=wrap;html=1;boundedLbl=1;verticalAlign=middle;align=center;" parent="b5Mt_fPdI5iNJ6w0Xpzc-0" vertex="1">
          <mxGeometry x="140" y="60" width="110" height="50" as="geometry" />
        </mxCell>
        <mxCell id="b5Mt_fPdI5iNJ6w0Xpzc-2" value="吴钩实验室-安全自动化组" style="swimlane;horizontal=0;fillColor=#fff2cc;strokeColor=#d6b656;verticalAlign=middle;align=center;" parent="WIyWlLk6GJQsqaUBKTNV-1" vertex="1">
          <mxGeometry x="164" y="390" width="602" height="370" as="geometry" />
        </mxCell>
        <mxCell id="b5Mt_fPdI5iNJ6w0Xpzc-9" value="" style="edgeStyle=orthogonalEdgeStyle;rounded=0;orthogonalLoop=1;jettySize=auto;html=1;verticalAlign=middle;align=center;" parent="b5Mt_fPdI5iNJ6w0Xpzc-2" source="b5Mt_fPdI5iNJ6w0Xpzc-3" target="b5Mt_fPdI5iNJ6w0Xpzc-8" edge="1">
          <mxGeometry relative="1" as="geometry" />
        </mxCell>
        <mxCell id="b5Mt_fPdI5iNJ6w0Xpzc-3" value="进行工具设计" style="rounded=1;whiteSpace=wrap;html=1;fontSize=12;glass=0;strokeWidth=1;shadow=0;verticalAlign=middle;align=center;" parent="b5Mt_fPdI5iNJ6w0Xpzc-2" vertex="1">
          <mxGeometry x="210" y="30" width="120" height="40" as="geometry" />
        </mxCell>
        <mxCell id="b5Mt_fPdI5iNJ6w0Xpzc-12" value="" style="edgeStyle=orthogonalEdgeStyle;rounded=0;orthogonalLoop=1;jettySize=auto;html=1;verticalAlign=middle;align=center;" parent="b5Mt_fPdI5iNJ6w0Xpzc-2" source="b5Mt_fPdI5iNJ6w0Xpzc-8" target="b5Mt_fPdI5iNJ6w0Xpzc-11" edge="1">
          <mxGeometry relative="1" as="geometry" />
        </mxCell>
        <mxCell id="b5Mt_fPdI5iNJ6w0Xpzc-8" value="拆分模块" style="rounded=1;whiteSpace=wrap;html=1;fontSize=12;glass=0;strokeWidth=1;shadow=0;verticalAlign=middle;align=center;" parent="b5Mt_fPdI5iNJ6w0Xpzc-2" vertex="1">
          <mxGeometry x="210" y="100" width="120" height="40" as="geometry" />
        </mxCell>
        <mxCell id="w0ziFHajpQSt5rMZ98JG-4" value="" style="edgeStyle=orthogonalEdgeStyle;rounded=0;orthogonalLoop=1;jettySize=auto;html=1;" parent="b5Mt_fPdI5iNJ6w0Xpzc-2" source="b5Mt_fPdI5iNJ6w0Xpzc-11" target="b5Mt_fPdI5iNJ6w0Xpzc-16" edge="1">
          <mxGeometry relative="1" as="geometry" />
        </mxCell>
        <mxCell id="b5Mt_fPdI5iNJ6w0Xpzc-11" value="开发模块功能" style="rounded=1;whiteSpace=wrap;html=1;fontSize=12;glass=0;strokeWidth=1;shadow=0;verticalAlign=middle;align=center;" parent="b5Mt_fPdI5iNJ6w0Xpzc-2" vertex="1">
          <mxGeometry x="210" y="165" width="120" height="40" as="geometry" />
        </mxCell>
        <mxCell id="w0ziFHajpQSt5rMZ98JG-7" value="否" style="edgeStyle=orthogonalEdgeStyle;rounded=0;orthogonalLoop=1;jettySize=auto;html=1;entryX=0;entryY=0.5;entryDx=0;entryDy=0;" parent="b5Mt_fPdI5iNJ6w0Xpzc-2" source="b5Mt_fPdI5iNJ6w0Xpzc-16" target="b5Mt_fPdI5iNJ6w0Xpzc-11" edge="1">
          <mxGeometry relative="1" as="geometry">
            <Array as="points">
              <mxPoint x="190" y="300" />
              <mxPoint x="190" y="185" />
            </Array>
          </mxGeometry>
        </mxCell>
        <mxCell id="b5Mt_fPdI5iNJ6w0Xpzc-16" value="测试" style="rhombus;whiteSpace=wrap;html=1;shadow=0;fontFamily=Helvetica;fontSize=12;align=center;strokeWidth=1;spacing=6;spacingTop=-4;verticalAlign=middle;" parent="b5Mt_fPdI5iNJ6w0Xpzc-2" vertex="1">
          <mxGeometry x="220" y="260" width="100" height="80" as="geometry" />
        </mxCell>
        <mxCell id="w0ziFHajpQSt5rMZ98JG-0" value="out:工具设计文档、技术调研" style="shape=document;whiteSpace=wrap;html=1;boundedLbl=1;verticalAlign=middle;align=center;" parent="b5Mt_fPdI5iNJ6w0Xpzc-2" vertex="1">
          <mxGeometry x="331" y="31" width="169" height="39" as="geometry" />
        </mxCell>
        <mxCell id="w0ziFHajpQSt5rMZ98JG-1" value="out:测试记录" style="shape=document;whiteSpace=wrap;html=1;boundedLbl=1;verticalAlign=middle;align=center;" parent="b5Mt_fPdI5iNJ6w0Xpzc-2" vertex="1">
          <mxGeometry x="330" y="165" width="120" height="40" as="geometry" />
        </mxCell>
        <mxCell id="MgCEsrjEWP3Si-s4gdg2-0" value="out:模块需求、模块设计文档" style="shape=document;whiteSpace=wrap;html=1;boundedLbl=1;verticalAlign=middle;align=center;" parent="b5Mt_fPdI5iNJ6w0Xpzc-2" vertex="1">
          <mxGeometry x="331" y="100" width="150" height="40" as="geometry" />
        </mxCell>
        <mxCell id="b5Mt_fPdI5iNJ6w0Xpzc-35" value="赋能" style="swimlane;horizontal=0;align=center;verticalAlign=middle;fillColor=#e1d5e7;strokeColor=#9673a6;" parent="WIyWlLk6GJQsqaUBKTNV-1" vertex="1">
          <mxGeometry x="164" y="920" width="602" height="290" as="geometry" />
        </mxCell>
        <mxCell id="w0ziFHajpQSt5rMZ98JG-18" value="是" style="edgeStyle=orthogonalEdgeStyle;rounded=0;orthogonalLoop=1;jettySize=auto;html=1;" parent="b5Mt_fPdI5iNJ6w0Xpzc-35" source="w0ziFHajpQSt5rMZ98JG-13" target="w0ziFHajpQSt5rMZ98JG-15" edge="1">
          <mxGeometry relative="1" as="geometry" />
        </mxCell>
        <mxCell id="w0ziFHajpQSt5rMZ98JG-13" value="赋能支持" style="rhombus;whiteSpace=wrap;html=1;shadow=0;fontFamily=Helvetica;fontSize=12;align=center;strokeWidth=1;spacing=6;spacingTop=-4;verticalAlign=middle;" parent="b5Mt_fPdI5iNJ6w0Xpzc-35" vertex="1">
          <mxGeometry x="220" y="16" width="100" height="80" as="geometry" />
        </mxCell>
        <mxCell id="Ut9Og5oWw0OSbRSQ-nCg-1" value="" style="edgeStyle=orthogonalEdgeStyle;rounded=0;orthogonalLoop=1;jettySize=auto;html=1;" edge="1" parent="b5Mt_fPdI5iNJ6w0Xpzc-35" source="w0ziFHajpQSt5rMZ98JG-15" target="Ut9Og5oWw0OSbRSQ-nCg-0">
          <mxGeometry relative="1" as="geometry" />
        </mxCell>
        <mxCell id="w0ziFHajpQSt5rMZ98JG-15" value="赋能产品、区域红队、其他团队" style="rounded=1;whiteSpace=wrap;html=1;fontSize=12;glass=0;strokeWidth=1;shadow=0;verticalAlign=middle;align=center;" parent="b5Mt_fPdI5iNJ6w0Xpzc-35" vertex="1">
          <mxGeometry x="210" y="146" width="120" height="40" as="geometry" />
        </mxCell>
        <mxCell id="CzGfe24st4bRN5wf_aPC-0" value="out:工具、使用文档" style="shape=document;whiteSpace=wrap;html=1;boundedLbl=1;" parent="b5Mt_fPdI5iNJ6w0Xpzc-35" vertex="1">
          <mxGeometry x="56" y="146" width="154" height="43" as="geometry" />
        </mxCell>
        <mxCell id="Ut9Og5oWw0OSbRSQ-nCg-0" value="输出反馈" style="rounded=1;whiteSpace=wrap;html=1;fontSize=12;glass=0;strokeWidth=1;shadow=0;verticalAlign=middle;align=center;" vertex="1" parent="b5Mt_fPdI5iNJ6w0Xpzc-35">
          <mxGeometry x="210" y="220" width="120" height="40" as="geometry" />
        </mxCell>
        <mxCell id="Ut9Og5oWw0OSbRSQ-nCg-2" value="iput:使用体验、修改建议" style="shape=document;whiteSpace=wrap;html=1;boundedLbl=1;" vertex="1" parent="b5Mt_fPdI5iNJ6w0Xpzc-35">
          <mxGeometry x="330" y="220" width="154" height="43" as="geometry" />
        </mxCell>
        <mxCell id="w0ziFHajpQSt5rMZ98JG-5" value="" style="edgeStyle=orthogonalEdgeStyle;rounded=0;orthogonalLoop=1;jettySize=auto;html=1;" parent="WIyWlLk6GJQsqaUBKTNV-1" source="b5Mt_fPdI5iNJ6w0Xpzc-16" target="b5Mt_fPdI5iNJ6w0Xpzc-19" edge="1">
          <mxGeometry relative="1" as="geometry" />
        </mxCell>
        <mxCell id="w0ziFHajpQSt5rMZ98JG-6" value="是" style="edgeStyle=orthogonalEdgeStyle;rounded=0;orthogonalLoop=1;jettySize=auto;html=1;" parent="WIyWlLk6GJQsqaUBKTNV-1" source="b5Mt_fPdI5iNJ6w0Xpzc-16" target="b5Mt_fPdI5iNJ6w0Xpzc-19" edge="1">
          <mxGeometry relative="1" as="geometry" />
        </mxCell>
        <mxCell id="b5Mt_fPdI5iNJ6w0Xpzc-31" value="产出沉淀" style="swimlane;horizontal=0;align=center;verticalAlign=middle;fillColor=#d5e8d4;strokeColor=#82b366;" parent="WIyWlLk6GJQsqaUBKTNV-1" vertex="1">
          <mxGeometry x="164" y="760" width="602" height="160" as="geometry" />
        </mxCell>
        <mxCell id="b5Mt_fPdI5iNJ6w0Xpzc-19" value="成果输出" style="rounded=1;whiteSpace=wrap;html=1;fontSize=12;glass=0;strokeWidth=1;shadow=0;verticalAlign=middle;align=center;" parent="b5Mt_fPdI5iNJ6w0Xpzc-31" vertex="1">
          <mxGeometry x="210" y="55" width="120" height="40" as="geometry" />
        </mxCell>
        <mxCell id="w0ziFHajpQSt5rMZ98JG-11" value="out:工具、使用文档" style="shape=document;whiteSpace=wrap;html=1;boundedLbl=1;" parent="b5Mt_fPdI5iNJ6w0Xpzc-31" vertex="1">
          <mxGeometry x="330" y="55" width="154" height="43" as="geometry" />
        </mxCell>
        <mxCell id="w0ziFHajpQSt5rMZ98JG-14" value="" style="edgeStyle=orthogonalEdgeStyle;rounded=0;orthogonalLoop=1;jettySize=auto;html=1;" parent="WIyWlLk6GJQsqaUBKTNV-1" source="b5Mt_fPdI5iNJ6w0Xpzc-19" target="w0ziFHajpQSt5rMZ98JG-13" edge="1">
          <mxGeometry relative="1" as="geometry" />
        </mxCell>
      </root>
    </mxGraphModel>
  </diagram>
</mxfile>
